# xmcd
#
# Track frame offsets:
#  150
#  18378
#  48197
#  66531
#  83892
#  102503
#  122632
#  147293
#  166792
#  185096
#  203211
#
# Disc length: 2971 seconds
#
# Revision: 0
# Processed by: cddbd v1.5.1PL2 Copyright (c) Steve Scherf et al.
# Submitted via: Collectorz.com_Music_Collector 6.11
#
DISCID=9b0b990b
DTITLE=Tchakounté, Roland - Aba Ngo
DYEAR=2005
DGENRE=Blues
TTITLE0=Mekou Shem
TTITLE1=Nouh Tsoum Noumam
TTITLE2=Aba Ngo
TTITLE3=Mentse
TTITLE4=Noum Windo
TTITLE5=Mba Zi Ke Tsoume
TTITLE6=Ka Bih Courage
TTITLE7=Ouh! Tcha Tcha Tcha
TTITLE8=Nouh Chaam
TTITLE9=Me Siag Nou
TTITLE10=Next Time, Ka Lagte
EXTD=
EXTT0=
EXTT1=
EXTT2=
EXTT3=
EXTT4=
EXTT5=
EXTT6=
EXTT7=
EXTT8=
EXTT9=
EXTT10=
PLAYORDER=
